# File exported by Houdini 19.0.455 (www.sidefx.com)
# 56 points
# 216 vertices
# 54 primitives
# Bounds: [-0.991999984, -0.991999984, -0.991999984] to [0.991999984, 0.991999984, 0.991999984]
g 
v 0.5 -0.5 0.5
v -0.5 -0.5 0.5
v 0.5 0.5 0.5
v -0.5 0.5 0.5
v -0.5 -0.5 -0.5
v 0.5 -0.5 -0.5
v -0.5 0.5 -0.5
v 0.5 0.5 -0.5
v 0.238999993 -0.238999993 0.5
v -0.238999993 -0.238999993 0.5
v -0.238999993 0.238999993 0.5
v 0.238999993 0.238999993 0.5
v -0.238999993 -0.238999993 -0.5
v 0.238999993 -0.238999993 -0.5
v 0.238999993 0.238999993 -0.5
v -0.238999993 0.238999993 -0.5
v -0.238999993 0.5 -0.238999993
v 0.238999993 0.5 -0.238999993
v 0.238999993 0.5 0.238999993
v -0.238999993 0.5 0.238999993
v 0.238999993 -0.5 -0.238999993
v -0.238999993 -0.5 -0.238999993
v -0.238999993 -0.5 0.238999993
v 0.238999993 -0.5 0.238999993
v 0.5 -0.238999993 -0.238999993
v 0.5 -0.238999993 0.238999993
v 0.5 0.238999993 0.238999993
v 0.5 0.238999993 -0.238999993
v -0.5 -0.238999993 0.238999993
v -0.5 -0.238999993 -0.238999993
v -0.5 0.238999993 -0.238999993
v -0.5 0.238999993 0.238999993
v 0.238999993 -0.238999993 0.991999984
v -0.238999993 -0.238999993 0.991999984
v -0.238999993 0.238999993 0.991999984
v 0.238999993 0.238999993 0.991999984
v -0.238999993 -0.238999993 -0.991999984
v 0.238999993 -0.238999993 -0.991999984
v 0.238999993 0.238999993 -0.991999984
v -0.238999993 0.238999993 -0.991999984
v -0.238999993 0.991999984 -0.238999993
v 0.238999993 0.991999984 -0.238999993
v 0.238999993 0.991999984 0.238999993
v -0.238999993 0.991999984 0.238999993
v 0.238999993 -0.991999984 -0.238999993
v -0.238999993 -0.991999984 -0.238999993
v -0.238999993 -0.991999984 0.238999993
v 0.238999993 -0.991999984 0.238999993
v 0.991999984 -0.238999993 -0.238999993
v 0.991999984 -0.238999993 0.238999993
v 0.991999984 0.238999993 0.238999993
v 0.991999984 0.238999993 -0.238999993
v -0.991999984 -0.238999993 0.238999993
v -0.991999984 -0.238999993 -0.238999993
v -0.991999984 0.238999993 -0.238999993
v -0.991999984 0.238999993 0.238999993
vn 0 0 1
vn -0 -0 1
vn -0 0 1
vn 0 -0 1
vn 0 -0 1
vn -0 0 1
vn -0 -0 1
vn -0 -0 1
vn -0 -0 1
vn -0 -0 1
vn 0 -0 1
vn -0 0 1
vn -0 0 1
vn 0 -0 1
vn -0 -0 1
vn 0 0 1
vn 0 -0 -1
vn -0 -0 -1
vn -0 -0 -1
vn 0 0 -1
vn 0 0 -1
vn -0 -0 -1
vn -0 -0 -1
vn -0 0 -1
vn -0 0 -1
vn -0 -0 -1
vn 0 0 -1
vn -0 -0 -1
vn -0 -0 -1
vn 0 0 -1
vn -0 -0 -1
vn 0 -0 -1
vn -0 1 0
vn 0 1 -0
vn -0 1 -0
vn -0 1 -0
vn -0 1 -0
vn -0 1 -0
vn -0 1 0
vn 0 1 -0
vn 0 1 -0
vn -0 1 0
vn -0 1 -0
vn 0 1 0
vn 0 1 0
vn -0 1 -0
vn 0 1 -0
vn -0 1 0
vn -0 -1 -0
vn 0 -1 0
vn -0 -1 -0
vn -0 -1 0
vn -0 -1 0
vn -0 -1 -0
vn -0 -1 -0
vn 0 -1 0
vn 0 -1 0
vn -0 -1 -0
vn -0 -1 -0
vn 0 -1 -0
vn 0 -1 -0
vn -0 -1 -0
vn 0 -1 0
vn -0 -1 -0
vn 1 0 -0
vn 1 -0 0
vn 1 -0 -0
vn 1 -0 -0
vn 1 -0 -0
vn 1 -0 -0
vn 1 0 -0
vn 1 -0 0
vn 1 -0 0
vn 1 0 -0
vn 1 -0 -0
vn 1 0 0
vn 1 0 0
vn 1 -0 -0
vn 1 -0 0
vn 1 0 -0
vn -1 -0 -0
vn -1 0 0
vn -1 -0 -0
vn -1 0 -0
vn -1 0 -0
vn -1 -0 -0
vn -1 -0 -0
vn -1 0 0
vn -1 0 0
vn -1 -0 -0
vn -1 -0 -0
vn -1 -0 0
vn -1 -0 0
vn -1 -0 -0
vn -1 0 0
vn -1 -0 -0
vn 0 0 1
vn -0 -0 1
vn -0 -0 1
vn -0 -0 1
vn 0 -0 -1
vn -0 -0 -1
vn -0 0 -1
vn -0 -0 -1
vn -0 1 -0
vn 0 1 0
vn -0 1 -0
vn -0 1 -0
vn -0 -1 -0
vn 0 -1 -0
vn -0 -1 -0
vn -0 -1 0
vn 1 -0 -0
vn 1 0 0
vn 1 -0 -0
vn 1 -0 -0
vn -1 -0 -0
vn -1 -0 0
vn -1 -0 -0
vn -1 0 -0
vn -0 -1 -0
vn 0 -1 -0
vn -0 -1 -0
vn -0 -1 0
vn -1 0 -0
vn -1 -0 -0
vn -1 -0 0
vn -1 -0 -0
vn -0 1 -0
vn 0 1 0
vn -0 1 -0
vn -0 1 -0
vn 1 0 0
vn 1 -0 -0
vn 1 -0 -0
vn 1 -0 -0
vn -0 -1 -0
vn -0 -1 0
vn -0 -1 -0
vn 0 -1 -0
vn 1 -0 -0
vn 1 -0 -0
vn 1 0 0
vn 1 -0 -0
vn -0 1 -0
vn -0 1 -0
vn -0 1 -0
vn 0 1 0
vn -1 -0 0
vn -1 -0 -0
vn -1 0 -0
vn -1 -0 -0
vn 0 -0 -1
vn -0 -0 -1
vn -0 0 -1
vn -0 -0 -1
vn 1 -0 -0
vn 1 0 0
vn 1 -0 -0
vn 1 -0 -0
vn 0 0 1
vn -0 -0 1
vn -0 -0 1
vn -0 -0 1
vn -1 -0 -0
vn -1 -0 0
vn -1 -0 -0
vn -1 0 -0
vn -0 0 -1
vn -0 -0 -1
vn 0 -0 -1
vn -0 -0 -1
vn -1 -0 -0
vn -1 0 -0
vn -1 -0 -0
vn -1 -0 0
vn -0 -0 1
vn -0 -0 1
vn 0 0 1
vn -0 -0 1
vn 1 -0 -0
vn 1 -0 -0
vn 1 -0 -0
vn 1 0 0
vn -0 -1 0
vn -0 -1 -0
vn 0 -1 -0
vn -0 -1 -0
vn -0 -0 1
vn 0 0 1
vn -0 -0 1
vn -0 -0 1
vn 0 1 0
vn -0 1 -0
vn -0 1 -0
vn -0 1 -0
vn -0 -0 -1
vn -0 0 -1
vn -0 -0 -1
vn 0 -0 -1
vn 0 -1 -0
vn -0 -1 -0
vn -0 -1 0
vn -0 -1 -0
vn -0 -0 -1
vn 0 -0 -1
vn -0 -0 -1
vn -0 0 -1
vn -0 1 -0
vn -0 1 -0
vn 0 1 0
vn -0 1 -0
vn -0 -0 1
vn -0 -0 1
vn -0 -0 1
vn 0 0 1
g 
f 1//1 9//2 10//3 2//4
f 2//5 10//6 11//7 4//8
f 4//9 11//10 12//11 3//12
f 3//13 12//14 9//15 1//16
f 5//17 13//18 14//19 6//20
f 6//21 14//22 15//23 8//24
f 8//25 15//26 16//27 7//28
f 7//29 16//30 13//31 5//32
f 7//33 17//34 18//35 8//36
f 8//37 18//38 19//39 3//40
f 3//41 19//42 20//43 4//44
f 4//45 20//46 17//47 7//48
f 6//49 21//50 22//51 5//52
f 5//53 22//54 23//55 2//56
f 2//57 23//58 24//59 1//60
f 1//61 24//62 21//63 6//64
f 6//65 25//66 26//67 1//68
f 1//69 26//70 27//71 3//72
f 3//73 27//74 28//75 8//76
f 8//77 28//78 25//79 6//80
f 2//81 29//82 30//83 5//84
f 5//85 30//86 31//87 7//88
f 7//89 31//90 32//91 4//92
f 4//93 32//94 29//95 2//96
f 9//121 33//122 34//123 10//124
f 10//125 34//126 35//127 11//128
f 11//129 35//130 36//131 12//132
f 12//133 36//134 33//135 9//136
f 13//137 37//138 38//139 14//140
f 14//141 38//142 39//143 15//144
f 15//145 39//146 40//147 16//148
f 16//149 40//150 37//151 13//152
f 17//153 41//154 42//155 18//156
f 18//157 42//158 43//159 19//160
f 19//161 43//162 44//163 20//164
f 20//165 44//166 41//167 17//168
f 21//169 45//170 46//171 22//172
f 22//173 46//174 47//175 23//176
f 23//177 47//178 48//179 24//180
f 24//181 48//182 45//183 21//184
f 25//185 49//186 50//187 26//188
f 26//189 50//190 51//191 27//192
f 27//193 51//194 52//195 28//196
f 28//197 52//198 49//199 25//200
f 29//201 53//202 54//203 30//204
f 30//205 54//206 55//207 31//208
f 31//209 55//210 56//211 32//212
f 32//213 56//214 53//215 29//216
g extrudeFront
f 33//97 36//98 35//99 34//100
f 37//101 40//102 39//103 38//104
f 41//105 44//106 43//107 42//108
f 45//109 48//110 47//111 46//112
f 49//113 52//114 51//115 50//116
f 53//117 56//118 55//119 54//120
