# Blender v3.0.1 OBJ File: ''
# www.blender.org
mtllib testcar.mtl
o Cube.002
v 1.760917 0.643795 -3.768841
v 1.760917 -0.233301 -3.469476
v 1.693670 1.207859 3.046999
v 1.693670 -0.233300 3.046999
v -1.760917 0.643795 -3.768841
v -1.760917 -0.233301 -3.469476
v -1.693670 1.207859 3.046999
v -1.693670 -0.233300 3.046999
v -1.780683 -0.233301 -2.651596
v -1.780683 -0.233300 1.983868
v 1.780683 1.516175 -3.671352
v 1.780683 1.365901 1.983868
v -1.780683 1.365901 1.983868
v -1.780683 1.516175 -3.671352
v 1.780683 -0.233300 1.983868
v 1.780683 -0.233301 -2.651596
v 1.673798 2.537773 -3.241610
v 1.673798 2.537774 1.398382
v -1.673798 2.537774 1.398382
v -1.673798 2.537773 -3.241610
v -1.780683 -0.233301 -0.334240
v 1.780683 1.488178 -0.334241
v -1.780683 1.488178 -0.334241
v 1.780683 -0.233301 -0.334240
v 1.673798 2.630507 -0.412113
v -1.673798 2.630507 -0.412113
v 0.593561 -0.233301 -3.679044
v -0.593561 -0.233301 -3.679044
v 0.523719 1.207859 3.133684
v -0.523719 1.207859 3.133684
v -0.523719 -0.233300 3.133684
v 0.523719 -0.233300 3.133684
v -0.593561 0.643795 -3.973651
v 0.593561 0.643795 -3.973651
v 0.593561 -0.233301 -2.155772
v -0.593561 -0.233301 -2.155772
v 0.593561 -0.233300 1.475275
v -0.593561 -0.233300 1.475275
v -0.593561 1.516175 -3.775018
v 0.593561 1.516175 -3.775018
v -0.593561 1.365901 2.041482
v 0.593561 1.365901 2.041482
v -0.436306 2.537773 -3.387018
v 0.436306 2.537773 -3.387018
v -0.436306 2.537774 1.387772
v 0.436306 2.537774 1.387772
v -0.436306 2.630507 -0.427195
v 0.436306 2.630507 -0.427195
v 0.593561 -0.233301 -0.340249
v -0.593561 -0.233301 -0.340249
v 1.507041 0.065857 0.709041
v 1.938612 0.065857 0.709041
v 1.507041 -0.271334 0.808050
v 1.938612 -0.271334 0.808050
v 1.507041 -0.501469 1.073640
v 1.938612 -0.501469 1.073640
v 1.507041 -0.551482 1.421489
v 1.938612 -0.551482 1.421489
v 1.507041 -0.405494 1.741158
v 1.938612 -0.405494 1.741158
v 1.507041 -0.109856 1.931153
v 1.938612 -0.109856 1.931153
v 1.507041 0.241570 1.931153
v 1.938612 0.241571 1.931153
v 1.507041 0.537209 1.741157
v 1.938612 0.537209 1.741157
v 1.507041 0.683197 1.421489
v 1.938612 0.683197 1.421489
v 1.507041 0.633183 1.073640
v 1.938612 0.633183 1.073640
v 1.507041 0.403048 0.808050
v 1.938612 0.403048 0.808050
v -1.507041 0.065857 0.709041
v -1.938612 0.065857 0.709041
v -1.507041 -0.271334 0.808050
v -1.938612 -0.271334 0.808050
v -1.507041 -0.501469 1.073640
v -1.938612 -0.501469 1.073640
v -1.507041 -0.551482 1.421489
v -1.938612 -0.551482 1.421489
v -1.507041 -0.405494 1.741158
v -1.938612 -0.405494 1.741158
v -1.507041 -0.109856 1.931153
v -1.938612 -0.109856 1.931153
v -1.507041 0.241570 1.931153
v -1.938612 0.241571 1.931153
v -1.507041 0.537209 1.741157
v -1.938612 0.537209 1.741157
v -1.507041 0.683197 1.421489
v -1.938612 0.683197 1.421489
v -1.507041 0.633183 1.073640
v -1.938612 0.633183 1.073640
v -1.507041 0.403048 0.808050
v -1.938612 0.403048 0.808050
v 1.507041 0.065857 -2.468448
v 1.938612 0.065857 -2.468448
v 1.507041 -0.271334 -2.369440
v 1.938612 -0.271334 -2.369440
v 1.507041 -0.501469 -2.103850
v 1.938612 -0.501469 -2.103850
v 1.507041 -0.551483 -1.756000
v 1.938612 -0.551482 -1.756000
v 1.507041 -0.405495 -1.436332
v 1.938612 -0.405495 -1.436332
v 1.507041 -0.109856 -1.246336
v 1.938612 -0.109856 -1.246336
v 1.507041 0.241570 -1.246336
v 1.938612 0.241570 -1.246336
v 1.507041 0.537208 -1.436332
v 1.938612 0.537208 -1.436332
v 1.507041 0.683196 -1.756001
v 1.938612 0.683196 -1.756001
v 1.507041 0.633183 -2.103850
v 1.938612 0.633183 -2.103850
v 1.507041 0.403048 -2.369440
v 1.938612 0.403048 -2.369440
v -1.507041 0.065857 -2.468448
v -1.938612 0.065857 -2.468448
v -1.507041 -0.271334 -2.369440
v -1.938612 -0.271334 -2.369440
v -1.507041 -0.501469 -2.103850
v -1.938612 -0.501469 -2.103850
v -1.507041 -0.551483 -1.756000
v -1.938612 -0.551482 -1.756000
v -1.507041 -0.405495 -1.436332
v -1.938612 -0.405495 -1.436332
v -1.507041 -0.109856 -1.246336
v -1.938612 -0.109856 -1.246336
v -1.507041 0.241570 -1.246336
v -1.938612 0.241570 -1.246336
v -1.507041 0.537208 -1.436332
v -1.938612 0.537208 -1.436332
v -1.507041 0.683196 -1.756001
v -1.938612 0.683196 -1.756001
v -1.507041 0.633183 -2.103850
v -1.938612 0.633183 -2.103850
v -1.507041 0.403048 -2.369440
v -1.938612 0.403048 -2.369440
vt 0.296875 0.406250
vt 0.238281 0.300781
vt 0.296875 0.300781
vt 0.238281 0.199219
vt 0.296875 0.199219
vt 0.019531 0.656250
vt 0.136719 0.785156
vt 0.019531 0.785156
vt 0.964844 0.679688
vt 0.906250 0.777344
vt 0.910156 0.687500
vt 0.664062 0.488281
vt 0.546875 0.386719
vt 0.664062 0.386719
vt 0.382812 0.976562
vt 0.445312 0.914062
vt 0.445312 0.976562
vt 0.546875 0.785156
vt 0.664062 0.656250
vt 0.664062 0.785156
vt 0.664062 0.574219
vt 0.546875 0.488281
vt 0.910156 0.453125
vt 0.964844 0.527344
vt 0.910156 0.519531
vt 0.964844 0.601562
vt 0.910156 0.601562
vt 0.136719 0.386719
vt 0.019531 0.488281
vt 0.019531 0.386719
vt 0.136719 0.574219
vt 0.019531 0.574219
vt 0.238281 0.914062
vt 0.296875 0.746094
vt 0.296875 0.914062
vt 0.238281 0.488281
vt 0.238281 0.574219
vt 0.296875 0.488281
vt 0.296875 0.574219
vt 0.546875 0.574219
vt 0.445312 0.656250
vt 0.445312 0.574219
vt 0.238281 0.656250
vt 0.296875 0.656250
vt 0.382812 0.406250
vt 0.445312 0.488281
vt 0.382812 0.488281
vt 0.136719 0.656250
vt 0.136719 0.488281
vt 0.855469 0.519531
vt 0.800781 0.601562
vt 0.800781 0.527344
vt 0.855469 0.601562
vt 0.382812 0.574219
vt 0.382812 0.656250
vt 0.238281 0.406250
vt 0.382812 0.746094
vt 0.445312 0.746094
vt 0.382812 0.914062
vt 0.855469 0.687500
vt 0.800781 0.679688
vt 0.855469 0.453125
vt 0.800781 0.468750
vt 0.296875 0.976562
vt 0.238281 0.976562
vt 0.859375 0.777344
vt 0.804688 0.757812
vt 0.445312 0.300781
vt 0.382812 0.199219
vt 0.445312 0.199219
vt 0.382812 0.300781
vt 0.445312 0.406250
vt 0.843750 0.613281
vt 0.875000 0.601562
vt 0.875000 0.613281
vt 0.843750 0.601562
vt 0.875000 0.578125
vt 0.843750 0.578125
vt 0.875000 0.566406
vt 0.843750 0.566406
vt 0.875000 0.554688
vt 0.843750 0.554688
vt 0.875000 0.542969
vt 0.843750 0.542969
vt 0.875000 0.519531
vt 0.843750 0.519531
vt 0.875000 0.507812
vt 0.843750 0.507812
vt 0.875000 0.496094
vt 0.843750 0.496094
vt 0.875000 0.484375
vt 0.812500 0.519531
vt 0.753906 0.531250
vt 0.710938 0.492188
vt 0.843750 0.460938
vt 0.875000 0.460938
vt 0.875000 0.449219
vt 0.750000 0.531250
vt 0.812500 0.519531
vt 0.820312 0.457031
vt 0.875000 0.613281
vt 0.843750 0.601562
vt 0.843750 0.613281
vt 0.875000 0.601562
vt 0.843750 0.578125
vt 0.875000 0.578125
vt 0.843750 0.566406
vt 0.875000 0.554688
vt 0.875000 0.566406
vt 0.875000 0.542969
vt 0.843750 0.554688
vt 0.843750 0.519531
vt 0.843750 0.542969
vt 0.875000 0.519531
vt 0.843750 0.507812
vt 0.875000 0.496094
vt 0.875000 0.507812
vt 0.843750 0.484375
vt 0.843750 0.496094
vt 0.718750 0.457031
vt 0.785156 0.531250
vt 0.796875 0.433594
vt 0.875000 0.460938
vt 0.875000 0.484375
vt 0.875000 0.449219
vt 0.843750 0.460938
vt 0.785156 0.531250
vt 0.726562 0.519531
vt 0.718750 0.457031
vt 0.875000 0.613281
vt 0.843750 0.601562
vt 0.875000 0.601562
vt 0.875000 0.578125
vt 0.843750 0.578125
vt 0.875000 0.566406
vt 0.843750 0.566406
vt 0.875000 0.554688
vt 0.843750 0.542969
vt 0.875000 0.542969
vt 0.875000 0.519531
vt 0.843750 0.519531
vt 0.875000 0.507812
vt 0.843750 0.507812
vt 0.875000 0.496094
vt 0.843750 0.496094
vt 0.875000 0.484375
vt 0.769531 0.425781
vt 0.812500 0.519531
vt 0.710938 0.492188
vt 0.843750 0.460938
vt 0.875000 0.460938
vt 0.875000 0.449219
vt 0.710938 0.484375
vt 0.750000 0.531250
vt 0.820312 0.457031
vt 0.875000 0.613281
vt 0.843750 0.601562
vt 0.843750 0.613281
vt 0.875000 0.578125
vt 0.875000 0.601562
vt 0.843750 0.566406
vt 0.843750 0.578125
vt 0.875000 0.554688
vt 0.875000 0.566406
vt 0.843750 0.542969
vt 0.843750 0.554688
vt 0.875000 0.542969
vt 0.843750 0.519531
vt 0.875000 0.519531
vt 0.843750 0.507812
vt 0.875000 0.496094
vt 0.875000 0.507812
vt 0.875000 0.484375
vt 0.843750 0.496094
vt 0.785156 0.531250
vt 0.828125 0.492188
vt 0.796875 0.433594
vt 0.875000 0.460938
vt 0.843750 0.484375
vt 0.875000 0.449219
vt 0.843750 0.460938
vt 0.726562 0.519531
vt 0.718750 0.457031
vt 0.796875 0.433594
vt 0.960938 0.757812
vt 0.546875 0.656250
vt 0.964844 0.468750
vt 0.238281 0.746094
vt 0.843750 0.484375
vt 0.718750 0.457031
vt 0.742188 0.433594
vt 0.769531 0.425781
vt 0.796875 0.433594
vt 0.820312 0.457031
vt 0.828125 0.492188
vt 0.785156 0.531250
vt 0.726562 0.519531
vt 0.843750 0.449219
vt 0.796875 0.433594
vt 0.769531 0.425781
vt 0.734375 0.433594
vt 0.718750 0.457031
vt 0.710938 0.484375
vt 0.726562 0.519531
vt 0.785156 0.531250
vt 0.828125 0.484375
vt 0.769531 0.425781
vt 0.742188 0.433594
vt 0.710938 0.492188
vt 0.726562 0.519531
vt 0.753906 0.531250
vt 0.812500 0.519531
vt 0.828125 0.492188
vt 0.820312 0.457031
vt 0.843750 0.449219
vt 0.734375 0.433594
vt 0.769531 0.425781
vt 0.796875 0.433594
vt 0.820312 0.457031
vt 0.828125 0.484375
vt 0.812500 0.519531
vt 0.750000 0.531250
vt 0.710938 0.484375
vt 0.843750 0.613281
vt 0.843750 0.554688
vt 0.843750 0.484375
vt 0.718750 0.457031
vt 0.742188 0.433594
vt 0.796875 0.433594
vt 0.820312 0.457031
vt 0.828125 0.492188
vt 0.785156 0.531250
vt 0.753906 0.531250
vt 0.726562 0.519531
vt 0.843750 0.449219
vt 0.796875 0.433594
vt 0.769531 0.425781
vt 0.734375 0.433594
vt 0.718750 0.457031
vt 0.726562 0.519531
vt 0.785156 0.531250
vt 0.812500 0.519531
vt 0.828125 0.484375
vt 0.769531 0.425781
vt 0.742188 0.433594
vt 0.718750 0.457031
vt 0.710938 0.492188
vt 0.726562 0.519531
vt 0.753906 0.531250
vt 0.812500 0.519531
vt 0.820312 0.457031
vt 0.843750 0.449219
vt 0.734375 0.433594
vt 0.769531 0.425781
vt 0.820312 0.457031
vt 0.828125 0.484375
vt 0.812500 0.519531
vt 0.785156 0.531250
vt 0.750000 0.531250
vt 0.710938 0.484375
vn -0.0002 0.9897 0.1433
vn -0.0091 0.9893 0.1456
vn -0.0086 0.9893 0.1456
vn -0.0739 0.0000 0.9973
vn -0.9995 -0.0147 -0.0292
vn 0.0000 -1.0000 0.0000
vn 0.9967 0.0000 0.0816
vn 0.1658 -0.3163 -0.9341
vn 0.1659 -0.3164 -0.9340
vn 0.9995 -0.0147 -0.0292
vn 1.0000 0.0000 0.0000
vn -0.9967 0.0000 0.0816
vn -1.0000 0.0000 0.0000
vn -0.1281 0.1645 -0.9780
vn -0.1281 0.1646 -0.9780
vn -0.1282 0.1646 -0.9780
vn -0.9952 0.0983 -0.0008
vn -0.9956 0.0933 0.0049
vn -0.9956 0.0935 0.0047
vn 0.0006 0.9987 0.0511
vn 0.0003 0.9987 0.0511
vn 0.0003 0.9987 0.0510
vn 0.9952 0.0983 -0.0009
vn 0.9951 0.0985 -0.0010
vn 0.9956 0.0935 0.0047
vn -0.0946 0.3803 -0.9200
vn -0.0945 0.3804 -0.9200
vn 0.0171 0.4688 0.8831
vn 0.0171 0.4689 0.8831
vn 0.9956 0.0933 0.0049
vn -0.0021 0.9995 -0.0320
vn -0.0012 0.9995 -0.0316
vn -0.0012 0.9995 -0.0315
vn -0.9951 0.0985 -0.0010
vn 0.0021 0.9995 -0.0320
vn 0.0009 0.9995 -0.0317
vn 0.0012 0.9995 -0.0315
vn -0.0171 0.4688 0.8831
vn -0.0171 0.4689 0.8831
vn 0.0000 0.4872 0.8733
vn 0.0946 0.3803 -0.9200
vn 0.0945 0.3805 -0.9200
vn 0.0945 0.3804 -0.9200
vn 0.0000 0.3551 -0.9348
vn -0.0006 0.9987 0.0511
vn -0.0003 0.9987 0.0511
vn -0.0004 0.9987 0.0512
vn -0.0003 0.9987 0.0510
vn 0.1281 0.1645 -0.9780
vn 0.1281 0.1646 -0.9780
vn 0.0000 0.2220 -0.9750
vn -0.1659 -0.3164 -0.9340
vn -0.1658 -0.3163 -0.9341
vn 0.0000 -0.3184 -0.9480
vn 0.0739 0.0000 0.9973
vn 0.0000 0.0000 1.0000
vn 0.0002 0.9897 0.1433
vn 0.0091 0.9893 0.1456
vn 0.0089 0.9893 0.1457
vn 0.0086 0.9893 0.1456
vn 0.0000 -0.2817 -0.9595
vn 0.0000 -0.7557 -0.6549
vn 0.0000 -0.9898 -0.1423
vn 0.0000 -0.9096 0.4154
vn 0.0000 -0.5406 0.8413
vn -0.0000 0.5406 0.8413
vn -0.0000 0.9096 0.4154
vn -0.0000 0.9898 -0.1423
vn -0.0000 0.7557 -0.6549
vn 0.0000 0.2817 -0.9595
vn -0.0089 0.9893 0.1457
vn 0.0004 0.9987 0.0512
vn 0.1282 0.1646 -0.9780
usemtl Material.001
s 1
f 41/1/1 7/2/2 30/3/3
f 30/3/4 8/4/4 31/5/4
f 9/6/5 5/7/5 6/8/5
f 15/9/6 32/10/6 37/11/6
f 15/12/7 3/13/7 4/14/7
f 27/15/8 1/16/9 2/17/8
f 1/18/10 16/19/10 2/20/10
f 24/21/11 12/22/11 15/12/11
f 27/23/6 16/24/6 35/25/6
f 24/26/6 37/11/6 49/27/6
f 7/28/12 10/29/12 8/30/12
f 23/31/13 9/6/13 21/32/13
f 5/33/14 39/34/15 33/35/16
f 23/31/17 19/36/18 26/37/19
f 26/37/20 45/38/21 47/39/22
f 22/40/23 17/41/24 25/42/25
f 39/34/26 20/43/27 43/44/27
f 42/45/28 18/46/29 46/47/29
f 22/40/23 18/46/30 12/22/30
f 20/43/31 47/39/32 43/44/33
f 23/31/17 20/43/34 14/48/34
f 13/49/13 21/32/13 10/29/13
f 35/25/6 24/26/6 49/27/6
f 16/19/11 22/40/11 24/21/11
f 36/50/6 21/51/6 9/52/6
f 35/25/6 50/53/6 36/50/6
f 17/41/35 48/54/36 25/42/35
f 43/44/33 48/54/36 44/55/37
f 41/1/38 19/36/39 13/56/39
f 42/45/40 45/38/40 41/1/40
f 40/57/41 17/41/42 11/58/43
f 39/34/44 44/55/44 40/57/44
f 25/42/45 46/47/46 18/46/47
f 47/39/22 46/47/46 48/54/48
f 1/16/49 40/57/50 11/58/49
f 33/35/51 40/57/51 34/59/51
f 21/51/6 38/60/6 10/61/6
f 49/27/6 38/60/6 50/53/6
f 28/62/6 9/52/6 6/63/6
f 27/23/6 36/50/6 28/62/6
f 5/33/52 28/64/53 6/65/53
f 33/35/54 27/15/54 28/64/54
f 10/61/6 31/66/6 8/67/6
f 37/11/6 31/66/6 38/60/6
f 3/68/55 32/69/55 4/70/55
f 29/71/56 31/5/56 32/69/56
f 42/45/57 3/68/58 12/72/59
f 41/1/1 29/71/60 42/45/57
f 52/73/61 53/74/61 51/75/61
f 54/76/62 55/77/62 53/74/62
f 56/78/63 57/79/63 55/77/63
f 58/80/64 59/81/64 57/79/64
f 60/82/65 61/83/65 59/81/65
f 62/84/56 63/85/56 61/83/56
f 64/86/66 65/87/66 63/85/66
f 66/88/67 67/89/67 65/87/67
f 68/90/68 69/91/68 67/89/68
f 66/92/11 62/93/11 58/94/11
f 69/91/69 72/95/69 71/96/69
f 72/95/70 51/97/70 71/96/70
f 61/98/13 65/99/13 69/100/13
f 73/101/61 76/102/61 74/103/61
f 75/104/62 78/105/62 76/102/62
f 77/106/63 80/107/63 78/105/63
f 81/108/64 80/107/64 79/109/64
f 83/110/65 82/111/65 81/108/65
f 83/110/56 86/112/56 84/113/56
f 85/114/66 88/115/66 86/112/66
f 89/116/67 88/115/67 87/117/67
f 89/116/68 92/118/68 90/119/68
f 78/120/13 86/121/13 94/122/13
f 93/123/69 92/118/69 91/124/69
f 73/125/70 94/126/70 93/123/70
f 85/127/11 81/128/11 77/129/11
f 95/130/61 98/131/61 97/132/61
f 98/131/62 99/133/62 97/132/62
f 100/134/63 101/135/63 99/133/63
f 102/136/64 103/137/64 101/135/64
f 103/137/65 106/138/65 105/139/65
f 106/138/56 107/140/56 105/139/56
f 108/141/66 109/142/66 107/140/66
f 110/143/67 111/144/67 109/142/67
f 112/145/68 113/146/68 111/144/68
f 96/147/11 110/148/11 102/149/11
f 113/146/69 116/150/69 115/151/69
f 116/150/70 95/152/70 115/151/70
f 101/153/13 105/154/13 113/155/13
f 117/156/61 120/157/61 118/158/61
f 121/159/62 120/157/62 119/160/62
f 121/159/63 124/161/63 122/162/63
f 125/163/64 124/161/64 123/164/64
f 125/163/65 128/165/65 126/166/65
f 127/167/56 130/168/56 128/165/56
f 129/169/66 132/170/66 130/168/66
f 133/171/67 132/170/67 131/172/67
f 135/173/68 134/174/68 133/171/68
f 130/175/13 134/176/13 138/177/13
f 137/178/69 136/179/69 135/173/69
f 117/180/70 138/181/70 137/178/70
f 125/182/11 121/183/11 137/184/11
f 41/1/1 13/56/71 7/2/2
f 30/3/4 7/2/4 8/4/4
f 9/6/5 14/48/5 5/7/5
f 15/9/6 4/185/6 32/10/6
f 15/12/7 12/22/7 3/13/7
f 27/15/8 34/59/8 1/16/9
f 1/18/10 11/186/10 16/19/10
f 24/21/11 22/40/11 12/22/11
f 27/23/6 2/187/6 16/24/6
f 24/26/6 15/9/6 37/11/6
f 7/28/12 13/49/12 10/29/12
f 23/31/13 14/48/13 9/6/13
f 5/33/14 14/188/14 39/34/15
f 23/31/17 13/49/18 19/36/18
f 26/37/20 19/36/72 45/38/21
f 22/40/23 11/186/24 17/41/24
f 39/34/26 14/188/27 20/43/27
f 42/45/28 12/72/29 18/46/29
f 22/40/23 25/42/25 18/46/30
f 20/43/31 26/37/31 47/39/32
f 23/31/17 26/37/19 20/43/34
f 13/49/13 23/31/13 21/32/13
f 35/25/6 16/24/6 24/26/6
f 16/19/11 11/186/11 22/40/11
f 36/50/6 50/53/6 21/51/6
f 35/25/6 49/27/6 50/53/6
f 17/41/35 44/55/37 48/54/36
f 43/44/33 47/39/32 48/54/36
f 41/1/38 45/38/39 19/36/39
f 42/45/40 46/47/40 45/38/40
f 40/57/41 44/55/43 17/41/42
f 39/34/44 43/44/44 44/55/44
f 25/42/45 48/54/48 46/47/46
f 47/39/22 45/38/21 46/47/46
f 1/16/49 34/59/73 40/57/50
f 33/35/51 39/34/51 40/57/51
f 21/51/6 50/53/6 38/60/6
f 49/27/6 37/11/6 38/60/6
f 28/62/6 36/50/6 9/52/6
f 27/23/6 35/25/6 36/50/6
f 5/33/52 33/35/53 28/64/53
f 33/35/54 34/59/54 27/15/54
f 10/61/6 38/60/6 31/66/6
f 37/11/6 32/10/6 31/66/6
f 3/68/55 29/71/55 32/69/55
f 29/71/56 30/3/56 31/5/56
f 42/45/57 29/71/60 3/68/58
f 41/1/1 30/3/3 29/71/60
f 52/73/61 54/76/61 53/74/61
f 54/76/62 56/78/62 55/77/62
f 56/78/63 58/80/63 57/79/63
f 58/80/64 60/82/64 59/81/64
f 60/82/65 62/84/65 61/83/65
f 62/84/56 64/86/56 63/85/56
f 64/86/66 66/88/66 65/87/66
f 66/88/67 68/90/67 67/89/67
f 68/90/68 70/189/68 69/91/68
f 56/190/11 54/191/11 52/192/11
f 52/192/11 72/193/11 66/92/11
f 72/193/11 70/194/11 66/92/11
f 70/194/11 68/195/11 66/92/11
f 66/92/11 64/196/11 62/93/11
f 62/93/11 60/197/11 58/94/11
f 58/94/11 56/190/11 66/92/11
f 56/190/11 52/192/11 66/92/11
f 69/91/69 70/189/69 72/95/69
f 72/95/70 52/198/70 51/97/70
f 71/199/13 51/200/13 53/201/13
f 53/201/13 55/202/13 57/203/13
f 57/203/13 59/204/13 61/98/13
f 61/98/13 63/205/13 65/99/13
f 65/99/13 67/206/13 69/100/13
f 69/100/13 71/199/13 61/98/13
f 71/199/13 53/201/13 61/98/13
f 53/201/13 57/203/13 61/98/13
f 73/101/61 75/104/61 76/102/61
f 75/104/62 77/106/62 78/105/62
f 77/106/63 79/109/63 80/107/63
f 81/108/64 82/111/64 80/107/64
f 83/110/65 84/113/65 82/111/65
f 83/110/56 85/114/56 86/112/56
f 85/114/66 87/117/66 88/115/66
f 89/116/67 90/119/67 88/115/67
f 89/116/68 91/124/68 92/118/68
f 74/207/13 76/208/13 78/120/13
f 78/120/13 80/209/13 82/210/13
f 82/210/13 84/211/13 86/121/13
f 86/121/13 88/212/13 90/213/13
f 90/213/13 92/214/13 94/122/13
f 94/122/13 74/207/13 78/120/13
f 78/120/13 82/210/13 86/121/13
f 86/121/13 90/213/13 94/122/13
f 93/123/69 94/126/69 92/118/69
f 73/125/70 74/215/70 94/126/70
f 75/216/11 73/217/11 93/218/11
f 93/218/11 91/219/11 89/220/11
f 89/220/11 87/221/11 85/127/11
f 85/127/11 83/222/11 81/128/11
f 81/128/11 79/223/11 77/129/11
f 77/129/11 75/216/11 85/127/11
f 75/216/11 93/218/11 85/127/11
f 93/218/11 89/220/11 85/127/11
f 95/130/61 96/224/61 98/131/61
f 98/131/62 100/134/62 99/133/62
f 100/134/63 102/136/63 101/135/63
f 102/136/64 104/225/64 103/137/64
f 103/137/65 104/225/65 106/138/65
f 106/138/56 108/141/56 107/140/56
f 108/141/66 110/143/66 109/142/66
f 110/143/67 112/145/67 111/144/67
f 112/145/68 114/226/68 113/146/68
f 100/227/11 98/228/11 96/147/11
f 96/147/11 116/229/11 110/148/11
f 116/229/11 114/230/11 110/148/11
f 114/230/11 112/231/11 110/148/11
f 110/148/11 108/232/11 106/233/11
f 106/233/11 104/234/11 110/148/11
f 104/234/11 102/149/11 110/148/11
f 102/149/11 100/227/11 96/147/11
f 113/146/69 114/226/69 116/150/69
f 116/150/70 96/235/70 95/152/70
f 115/236/13 95/237/13 97/238/13
f 97/238/13 99/239/13 101/153/13
f 101/153/13 103/240/13 105/154/13
f 105/154/13 107/241/13 109/242/13
f 109/242/13 111/243/13 105/154/13
f 111/243/13 113/155/13 105/154/13
f 113/155/13 115/236/13 97/238/13
f 97/238/13 101/153/13 113/155/13
f 117/156/61 119/160/61 120/157/61
f 121/159/62 122/162/62 120/157/62
f 121/159/63 123/164/63 124/161/63
f 125/163/64 126/166/64 124/161/64
f 125/163/65 127/167/65 128/165/65
f 127/167/56 129/169/56 130/168/56
f 129/169/66 131/172/66 132/170/66
f 133/171/67 134/174/67 132/170/67
f 135/173/68 136/179/68 134/174/68
f 118/244/13 120/245/13 122/246/13
f 122/246/13 124/247/13 126/248/13
f 126/248/13 128/249/13 130/175/13
f 130/175/13 132/250/13 134/176/13
f 134/176/13 136/251/13 138/177/13
f 138/177/13 118/244/13 122/246/13
f 122/246/13 126/248/13 138/177/13
f 126/248/13 130/175/13 138/177/13
f 137/178/69 138/181/69 136/179/69
f 117/180/70 118/252/70 138/181/70
f 119/253/11 117/254/11 137/184/11
f 137/184/11 135/255/11 133/256/11
f 133/256/11 131/257/11 129/258/11
f 129/258/11 127/259/11 125/182/11
f 125/182/11 123/260/11 121/183/11
f 121/183/11 119/253/11 137/184/11
f 137/184/11 133/256/11 129/258/11
f 129/258/11 125/182/11 137/184/11
